<svg width="400" height="300" viewBox="0 0 400 300" fill="none" xmlns="http://www.w3.org/2000/svg">
  <rect width="400" height="300" fill="#F3F4F6"/>
  <rect x="50" y="50" width="300" height="200" fill="#E5E7EB" rx="8"/>
  <path d="M150 125C150 139.912 137.912 152 123 152C108.088 152 96 139.912 96 125C96 110.088 108.088 98 123 98C137.912 98 150 110.088 150 125Z" fill="#9CA3AF"/>
  <path d="M123 132C127.418 132 131 128.418 131 124C131 119.582 127.418 116 123 116C118.582 116 115 119.582 115 124C115 128.418 118.582 132 123 132Z" fill="#6B7280"/>
  <rect x="50" y="50" width="300" height="40" fill="#E5E7EB" rx="4"/>
  <rect x="50" y="100" width="300" height="20" fill="#E5E7EB" rx="4"/>
  <rect x="50" y="130" width="200" height="20" fill="#E5E7EB" rx="4"/>
  <rect x="50" y="160" width="100" height="20" fill="#E5E7EB" rx="4"/>
</svg>
